<?xml version="1.0" encoding="iso-8859-1"?>
<!-- Generator: Adobe Illustrator 19.0.0, SVG Export Plug-In . SVG Version: 6.00 Build 0)  -->
<svg version="1.1" id="Layer_1" xmlns="http://www.w3.org/2000/svg" xmlns:xlink="http://www.w3.org/1999/xlink" x="0px" y="0px"
	 viewBox="0 0 512.001 512.001" style="enable-background:new 0 0 512.001 512.001;" xml:space="preserve">
<g>
	<g>
		<g>
			<circle cx="231.73" cy="117.887" r="9.246"/>
			<circle cx="275.648" cy="117.887" r="9.246"/>
			<path d="M456.565,492.81c-12.977-5.19-19.647-17.034-22.957-26.057c-6.82-18.585-4.83-39.323,0.506-49.402
				c2.098-3.964,6.319-9.165,11.203-15.187c20.765-25.593,55.518-68.427,37.207-146.242c-5.372-22.837-17.733-39.715-36.737-50.167
				c-36.19-19.904-87.603-11.07-116.419-3.52c15.065-34.573,25.608-76.096,25.608-103.259C354.976,44.4,310.576,0,256,0
				c-54.575,0-98.974,44.4-98.974,98.976c0,27.322,10.506,68.658,25.592,103.241c-28.34-7.415-79.501-16.297-115.728,3.171
				c-19.387,10.419-31.975,27.421-37.413,50.534C11.166,333.74,45.921,376.574,66.685,402.166
				c4.885,6.021,9.104,11.221,11.203,15.185c5.335,10.078,7.325,30.817,0.506,49.402c-3.311,9.022-9.981,20.866-22.959,26.057
				c-4.135,1.655-6.503,6.021-5.634,10.39c0.862,4.329,4.663,7.441,9.067,7.441c0.039,0,0.079,0,0.119-0.001
				c2.079-0.025,51.17-1.025,72.101-34.168c13.244-20.971,11.898-49.107-3.999-83.628c-31.428-68.244-26.2-98.651-20.287-110.702
				c4.57-9.313,11.291-11.755,13.967-12.374c4.976-1.148,8.079-6.113,6.93-11.088c-1.148-4.977-6.117-8.081-11.088-6.93
				c-11.105,2.562-20.731,10.67-26.41,22.245c-13.077,26.651-6.318,69.239,20.091,126.584c13.096,28.435,14.843,50.629,5.196,65.964
				c-6.045,9.608-15.93,15.614-25.772,19.369c2.325-3.902,4.346-8.172,6.04-12.788c7.853-21.404,7.228-47.895-1.522-64.424
				c-2.944-5.56-7.69-11.41-13.186-18.184c-19.83-24.441-49.799-61.376-33.568-130.358c4.228-17.97,13.432-30.552,28.138-38.465
				c44.116-23.739,120.681,3.957,121.449,4.238c4.791,1.764,10.102-0.688,11.871-5.476c1.127-3.052,0.534-6.316-1.281-8.741
				c-20.128-38.168-32.136-87.105-32.136-112.737c-0.002-44.381,36.102-80.486,80.48-80.486s80.483,36.105,80.483,80.483
				c0,24.025-10.718,69.193-28.845,106.273c-1.047,2.142-3.964,7.471-4.236,8.043c-1.033,2.171-1.225,4.736-0.325,7.169
				c1.771,4.785,7.086,7.236,11.868,5.466c0.047-0.017,0.454-0.166,1.186-0.42c7.981-2.77,79.184-26.407,120.745-3.548
				c14.423,7.932,23.466,20.428,27.648,38.199c16.23,68.981-13.737,105.916-33.568,130.357
				c-5.496,6.774-10.242,12.625-13.186,18.185c-8.75,16.53-9.377,43.023-1.522,64.425c1.704,4.64,3.735,8.933,6.077,12.851
				c-9.817-3.741-19.691-9.745-25.774-19.377c-9.686-15.338-7.949-37.549,5.162-66.019c26.409-57.346,33.168-99.936,20.091-126.584
				c-5.679-11.575-15.306-19.682-26.41-22.245c-4.978-1.149-9.941,1.954-11.088,6.93c-1.149,4.976,1.953,9.941,6.93,11.088
				c2.677,0.618,9.397,3.06,13.967,12.373c5.913,12.051,11.141,42.457-20.287,110.702c-15.897,34.521-17.244,62.658-3.999,83.629
				c20.928,33.141,70.019,34.14,72.098,34.166c0.04,0.001,0.079,0.001,0.119,0.001c4.405,0,8.205-3.11,9.067-7.441
				C463.069,498.83,460.701,494.464,456.565,492.81z"/>
			<path d="M371.944,322.707c-0.483-23.804-7.834-42.227-20.7-51.876c-4.082-3.062-9.879-2.238-12.944,1.85
				c-3.063,4.084-2.236,9.881,1.85,12.944c16.201,12.15,19.563,57.002-0.561,94.475c-13.536,25.207-14.876,66.643-13.931,94.567
				c-19.144-34.907-25.313-93.649-26.054-118.557c2.702-22.055,4.362-39.541,4.362-45.102c0-8.115-3.092-15.917-8.939-22.566
				c-3.371-3.834-9.216-4.208-13.05-0.836c-3.834,3.372-4.208,9.216-0.836,13.05c2.874,3.267,4.332,6.751,4.332,10.352
				c0,7.296-4.368,49.305-11.217,93.287c-8.075,51.862-14.52,74.174-18.255,83.646c-3.737-9.471-10.18-31.783-18.254-83.646
				c-6.849-43.982-11.217-85.989-11.217-93.287c0-3.235,1.186-6.391,3.525-9.382c3.146-4.022,2.435-9.834-1.587-12.979
				c-4.022-3.145-9.833-2.434-12.979,1.587c-4.874,6.233-7.451,13.416-7.451,20.776c0,5.549,1.653,22.963,4.343,44.94
				c-0.72,24.818-6.874,83.738-26.06,118.72c0.944-27.924-0.395-69.362-13.932-94.567c-20.123-37.473-16.761-82.325-0.559-94.476
				c4.084-3.063,4.912-8.859,1.849-12.943c-3.063-4.084-8.86-4.917-12.944-1.849c-12.865,9.648-20.215,28.071-20.7,51.875
				c-0.451,22.186,5.404,46.294,16.064,66.143c18.659,34.745,9.928,112.056,9.838,112.834c-0.426,3.671,1.373,7.245,4.577,9.085
				c1.433,0.823,3.022,1.23,4.607,1.23c1.96,0,3.912-0.623,5.546-1.849c22.458-16.843,34.896-52.187,41.777-84.808
				c3.671,21.46,7.332,39.022,10.909,52.289C239.073,498.85,244.858,512,256,512c11.143,0,16.927-13.15,22.648-34.368
				c3.574-13.254,7.232-30.794,10.899-52.225c6.884,32.604,19.32,67.911,41.763,84.745c1.635,1.226,3.587,1.849,5.548,1.849
				c1.583,0,3.174-0.408,4.606-1.23c3.204-1.841,5.004-5.416,4.578-9.085c-0.09-0.778-8.821-78.089,9.838-112.834
				C366.538,368.999,372.393,344.893,371.944,322.707z"/>
		</g>
	</g>
</g>
<g>
</g>
<g>
</g>
<g>
</g>
<g>
</g>
<g>
</g>
<g>
</g>
<g>
</g>
<g>
</g>
<g>
</g>
<g>
</g>
<g>
</g>
<g>
</g>
<g>
</g>
<g>
</g>
<g>
</g>
</svg>
