<?xml version="1.0" encoding="UTF-8" standalone="no"?>
<!-- Created with Inkscape (http://www.inkscape.org/) -->

<svg
   xmlns:dc="http://purl.org/dc/elements/1.1/"
   xmlns:cc="http://creativecommons.org/ns#"
   xmlns:rdf="http://www.w3.org/1999/02/22-rdf-syntax-ns#"
   xmlns:svg="http://www.w3.org/2000/svg"
   xmlns="http://www.w3.org/2000/svg"
   xmlns:sodipodi="http://sodipodi.sourceforge.net/DTD/sodipodi-0.dtd"
   xmlns:inkscape="http://www.inkscape.org/namespaces/inkscape"
   width="339.99939mm"
   height="171.6609mm"
   viewBox="0 0 1204.7223 608.24729"
   id="svg2"
   version="1.1"
   inkscape:version="0.91 r13725"
   sodipodi:docname="logo-octo-in-folder.svg">
  <defs
     id="defs4">
    <inkscape:path-effect
       effect="spiro"
       id="path-effect4293"
       is_visible="true" />
    <inkscape:path-effect
       effect="spiro"
       id="path-effect4293-3"
       is_visible="true" />
  </defs>
  <sodipodi:namedview
     id="base"
     pagecolor="#ffffff"
     bordercolor="#666666"
     borderopacity="1.0"
     inkscape:pageopacity="0.0"
     inkscape:pageshadow="2"
     inkscape:zoom="0.35"
     inkscape:cx="517.86239"
     inkscape:cy="302.22302"
     inkscape:document-units="px"
     inkscape:current-layer="layer2"
     showgrid="false"
     showborder="true"
     inkscape:window-width="1920"
     inkscape:window-height="1174"
     inkscape:window-x="0"
     inkscape:window-y="0"
     inkscape:window-maximized="1"
     fit-margin-top="0"
     fit-margin-left="0"
     fit-margin-right="0"
     fit-margin-bottom="0" />
  <metadata
     id="metadata7">
    <rdf:RDF>
      <cc:Work
         rdf:about="">
        <dc:format>image/svg+xml</dc:format>
        <dc:type
           rdf:resource="http://purl.org/dc/dcmitype/StillImage" />
        <dc:title></dc:title>
      </cc:Work>
    </rdf:RDF>
  </metadata>
  <g
     inkscape:label="Layer 1"
     inkscape:groupmode="layer"
     id="layer1"
     transform="translate(-529.16174,-530.16806)"
     style="display:none">
    <path
       style="fill:none;fill-rule:evenodd;stroke:#000000;stroke-width:1px;stroke-linecap:butt;stroke-linejoin:miter;stroke-opacity:1"
       d="m 88.893424,480.11078 c -4.794528,-8.96556 -9.257857,-15.13678 -11.111678,-24.74873 -4.824568,-9.41615 -4.677839,-20.89149 -7.071068,-31.31473 -0.694003,-14.78387 1.913982,-28.21394 5.050763,-41.41626 0.86088,-9.02173 5.361136,-17.29894 9.091373,-24.24366 3.420374,-1.59827 7.785993,-11.21053 13.131983,-14.14213 2.582103,-2.52039 5.006163,-5.6323 6.783403,-8.07674 7.12955,-5.15188 17.4296,-8.63059 27.93183,-8.0857 9.72082,-0.7528 17.10827,0.82777 23.87361,3.03045 5.32194,3.20495 7.38405,6.95653 11.11168,9.09138 2.96912,5.60396 8.92426,10.55491 12.12183,17.17259 4.26721,4.01373 6.40821,9.31635 8.08122,14.14214 6.79591,9.24809 4.97136,25.16788 5.05077,37.37564 1.60862,10.85381 -5.3336,21.16283 -2.02031,30.30458 3.52128,7.61673 4.05099,13.19669 13.13198,19.1929 5.84523,6.47602 18.24983,7.74083 27.27412,11.11167 9.72934,2.38489 20.53883,2.16205 31.31473,2.02031 5.7409,-3.29758 12.96664,-4.84532 18.18275,-8.08122 8.26998,-1.93933 12.72316,-4.24743 19.1929,-11.11168 6.02984,-4.22478 6.77968,-10.8955 10.10152,-15.15229 2.31832,-9.02226 6.42095,-16.80063 6.06092,-26.28896 0.49304,-8.32181 -4.0228,-14.92162 -6.06092,-22.19836 -2.82859,-4.86912 -5.76048,-10.35829 -8.08122,-14.14214 -3.34245,-4.7024 -7.01028,-6.30827 -10.10152,-12.12183 -3.27373,-3.54686 -8.63526,-8.88395 -10.10153,-15.15228 -5.00791,-9.79584 -0.92835,-21.16339 10.10153,-17.1726 5.1745,4.27548 6.66656,8.34822 9.09137,13.13199 2.83742,3.96583 5.68946,9.79269 9.09137,16.16244 4.49921,9.40868 12.65381,17.20036 16.16244,27.27411 5.44425,7.83219 8.65541,15.00521 10.10153,25.25382 5.09028,11.328 4.72496,24.97479 -2.02031,35.35534 -4.468,9.35959 -13.41116,18.27525 -20.20305,22.22335 -7.21524,5.73735 -15.82855,8.873 -23.23351,12.12183 -6.4779,5.35809 -13.09421,6.88078 -19.1929,9.09138 -10.74944,2.28852 -22.51471,2.25087 -34.29737,1.98332 -9.61689,-1.10273 -25.5752,-8.39023 -31.36254,3.06744 0.4596,9.22045 8.2098,12.05395 17.18696,17.22379 9.41203,0.99295 18.5914,6.49238 29.28461,5.0129 11.99109,0.70902 25.42337,-0.15768 37.37109,-0.0133 17.16027,0.75577 31.52646,-8.46888 45.45687,-17.1726 12.39033,-12.12327 28.13993,-21.44135 40.4061,-34.34518 8.55303,-9.11687 16.89407,-25.53483 22.13129,-33.95951 6.2977,-8.23052 9.93135,-16.47046 14.2342,-25.63949 5.07223,-10.16499 5.80493,-24.39389 9.09137,-36.3655 0.77299,-10.64055 2.61003,-22.90513 9.09137,-29.29442 4.59408,-8.71374 12.92026,-4.17333 14.14214,1.01015 5.52924,8.30611 6.91534,19.33332 3.03046,30.30458 -4.09517,12.80177 -10.03022,21.50909 -17.1726,32.32488 -5.07242,12.58018 -14.8377,22.45147 -20.20305,34.34519 -6.16116,8.61965 -10.30678,15.5997 -16.16244,22.22335 -7.16848,8.75026 -14.14479,17.38649 -19.1929,27.27412 -6.7982,8.40035 -9.57314,18.46719 -18.07899,26.16021 -7.47805,7.58143 -17.47235,13.68622 -25.35757,16.2662 -7.96874,4.70219 -16.80409,6.98462 -25.25381,11.11168 -15.95648,2.55382 -30.92985,7.61497 -47.47717,8.08122 -11.68402,1.82258 -24.84834,-0.13465 -36.36549,-2.02031 -8.89028,-0.23612 -19.97312,1.54844 -24.24366,-4.04061 -2.14724,-3.23585 -5.80009,-4.33374 -8.08122,-10.10152 -3.27266,-1.86892 -5.04395,-8.69193 -13.13198,-5.05077 -2.18274,10.43522 6.75682,18.19442 2.0203,28.28428 -3.63758,8.13557 -10.88839,16.03588 -19.1929,22.22335 -8.98555,8.67717 -20.9683,18.71945 -30.30457,22.22336 -12.16546,4.94405 -23.80292,5.75182 -36.365496,10.10152 -13.983911,1.8091 -27.875198,2.38391 -42.426407,2.02031 -9.772315,-2.24357 -21.00379,-1.81245 -31.314729,-3.03046 -18.20877461,-4.14779 -36.512137,-7.08829 -54.598583,-12.199 -11.576714,-5.01226 -30.625286,-11.90714 -37.950683,-16.14755 -8.251565,-3.84301 -20.192163,-8.17121 -26.648732,-11.0494 -6.51401,-3.7823 -13.56043,-7.88201 -20.20305,-14.14213 -8.61635,-6.43536 -14.64179,-16.75848 -23.14117,-22.55363 -4.4987,-8.14344 -9.33523,-16.90692 -12.21417,-25.9337 -0.73462,-10.71959 -7.77376,-18.9405 -7.07107,-31.33973 -0.42267,-13.23695 3.15464,-24.8233 2.02031,-38.36079 0.87759,-12.6486 3.64098,-25.01531 12.12183,-33.33504 5.83954,-3.27674 12.22346,-10.1691 18.18274,-11.11167 6.13809,-3.29805 11.05137,6.30531 13.13198,11.11167 4.64899,9.70775 -7.72616,13.13469 -11.11167,17.1726 -5.03322,4.57938 -5.87388,13.61675 -8.08122,22.22335 0.24704,15.91119 -1.48947,33.10246 5.05076,46.46702 5.57516,9.97805 13.80854,18.31101 22.22336,25.25381 1.99688,6.783 6.91213,6.55665 12.121826,14.14214 8.163481,7.1091 14.312817,14.80975 24.243661,21.2132 12.192235,8.11088 22.758897,14.30335 33.335034,19.1929 13.184079,5.6932 26.945489,6.49341 39.395949,12.12183 20.774691,4.30807 42.92812,2.74844 64.649763,3.03046 9.91536,-1.9956 16.787195,-4.04405 25.253814,-9.09137 8.363757,-2.69314 9.396315,-7.32918 13.131983,-12.12183 4.60002,-9.93966 9.89395,-24.8169 3.03046,-35.35534 -2.62066,-5.87927 -7.867496,-7.69876 -10.101528,-11.11168 -6.356153,-2.03688 -13.593021,-4.88803 -20.203051,2.0203 -2.723771,3.19282 -7.377785,5.01012 -12.25812,7.80213 -4.498861,4.67117 -9.738997,7.61164 -18.071455,6.34001 -10.383868,0.65141 -24.814703,-1.85456 -36.3404931,-5.05076 -8.35180304,-1.90649 -19.1197589,-9.93281 -23.2335089,-13.13199 -12.423194,-10.12322 -27.073793,-19.14449 -35.355339,-33.33503 -8.236293,-6.79202 -7.260083,-19.55987 2.020305,-22.22336 6.750355,-5.25587 16.072155,-7.90984 23.247735,-13.41283 7.356968,-7.16853 16.2582737,-14.31962 19.1163892,-24.34758 6.4102281,-8.46785 1.0238567,-26.93027 -8.0189372,-35.98072 -3.132774,-8.13042 -10.177548,-15.13621 -13.131983,-22.22336 -4.660903,-5.99093 -6.547924,-6.4526 -11.111678,-12.12183 -6.670953,-6.59928 -8.977858,-13.3842 -10.101526,-23.23351 4.146493,-5.88599 15.326709,-2.02229 17.070985,4.66795 2.319734,-1.10543 6.003659,6.81194 8.182829,7.45388 2.237073,5.23874 6.127521,8.82781 9.091373,12.12183 2.763518,3.34952 9.7728334,11.43133 13.13646965,16.45011 4.23073825,3.58597 9.92724665,12.94585 14.13764935,16.88493 2.411833,7.47743 2.994601,14.87148 8.08122,20.20305 5.012292,9.02308 3.440985,19.0668 -6.060915,25.25381 -4.177695,6.1296 -8.0406997,7.50372 -10.1015257,12.12183 -4.6479993,5.96573 -18.7048553,11.0175 -23.7385853,17.1726 -14.332136,7.0684 -13.350943,23.74901 -1.010152,30.30457 11.7209684,7.92277 30.185299,25.13576 43.436559,27.7792 10.06836,4.64722 37.33648,-4.55069 43.941636,-10.60661 5.323039,-2.01744 16.714823,-11.04604 16.714823,-11.04604 3.213587,-2.33727 5.003457,-9.66209 5.003457,-9.66209 z"
       id="path3338"
       inkscape:connector-curvature="0"
       sodipodi:nodetypes="ccccccccccccccccccccccccccccccccccccccccccccccccccccccccccccccccccccccccccccccccccccccccccccccccccccccccccccccccccccc" />
  </g>
  <g
     inkscape:groupmode="layer"
     id="layer4"
     inkscape:label="folder1-backgr"
     style="display:inline"
     transform="translate(-529.16174,-221.90034)" />
  <g
     inkscape:groupmode="layer"
     id="layer2"
     inkscape:label="folder1"
     style="display:inline"
     transform="translate(-529.16174,-221.90034)">
    <g
       id="g3485"
       transform="translate(-106.61158,-64.068297)" />
    <g
       id="g3487"
       transform="translate(-106.61158,-64.068297)" />
    <g
       id="g3489"
       transform="translate(-106.61158,-64.068297)" />
    <g
       id="g3491"
       transform="translate(-106.61158,-64.068297)" />
    <g
       id="g3493"
       transform="translate(-106.61158,-64.068297)" />
    <g
       id="g3495"
       transform="translate(-106.61158,-64.068297)" />
    <g
       id="g3497"
       transform="translate(-106.61158,-64.068297)" />
    <g
       id="g3499"
       transform="translate(-106.61158,-64.068297)" />
    <g
       id="g3501"
       transform="translate(-106.61158,-64.068297)" />
    <g
       id="g3503"
       transform="translate(-106.61158,-64.068297)" />
    <g
       id="g3505"
       transform="translate(-106.61158,-64.068297)" />
    <g
       id="g3507"
       transform="translate(-106.61158,-64.068297)" />
    <g
       id="g3509"
       transform="translate(-106.61158,-64.068297)" />
    <g
       id="g3511"
       transform="translate(-106.61158,-64.068297)" />
    <g
       id="g3513"
       transform="translate(-106.61158,-64.068297)" />
    <path
       style="fill:none;fill-rule:evenodd;stroke:#000000;stroke-width:24.80315018;stroke-linecap:round;stroke-linejoin:miter;stroke-miterlimit:4;stroke-dasharray:none;stroke-opacity:1"
       d="m 761.07473,467.33011 c -4.99624,77.19083 -126.17948,101.3028 -163.76227,86.67159 -37.58279,-14.63121 -40.64815,-78.66903 -13.86399,-115.38796 26.78416,-36.71893 125.12164,-46.40446 171.3871,-21.00475 46.26546,25.39971 56.88319,62.33638 77.14571,91.80802 20.26252,29.47163 82.52748,116.49275 134.75176,90.73223 52.22426,-25.76052 -1.49272,-102.58776 -7.41975,-157.57748 -5.92703,-54.98972 -8.78724,-120.72773 42.68611,-165.90348 51.4734,-45.17575 141.994,-53.5308 203.7149,-21.14522 61.7209,32.38558 71.7274,98.26532 61.988,158.00028 -9.7394,59.73496 -20.3132,118.28918 -9.9926,177.93844 10.3206,59.64926 50.2114,95.04749 92.5881,114.72334 42.3767,19.67585 140.6543,45.82181 160.8603,-26.63235 11.8494,-48.17171 -7.3067,-107.10352 -20.3484,-157.68947 -13.0417,-50.58595 -3.317,-107.0866 36.5192,-139.21056 39.8362,-32.12396 121.8596,-14.42378 130.4136,35.99149 8.554,50.41527 -69.2325,43.70198 -88.9435,12.50901"
       id="path4195"
       inkscape:connector-curvature="0"
       sodipodi:nodetypes="czzzzzzzzzzzczzzc" />
    <path
       style="fill:none;fill-rule:evenodd;stroke:#000000;stroke-width:24.80315018;stroke-linecap:round;stroke-linejoin:miter;stroke-miterlimit:4;stroke-dasharray:none;stroke-opacity:1"
       d="m 1160.1436,594.33958 c 13.3333,44.59998 41.2473,83.70778 72.7516,117.2011 38.8322,41.28388 83.5658,85.24076 138.7086,98.33921 81.5668,19.37512 174.3737,1.17636 248.6742,-37.6563 37.1847,-19.43433 69.7262,-52.97053 86.5224,-91.41896 11.0484,-25.29097 23.7708,-61.9784 5.4477,-82.61732 -20.1889,-22.74057 -66.1389,-22.19136 -91.1003,-4.82314 -1.2954,0.90136 -1.1045,2.97149 -1.4086,4.52007 -0.3137,1.59739 -0.4181,4.86576 -0.4181,4.86576"
       id="path4197"
       inkscape:connector-curvature="0"
       sodipodi:nodetypes="caaaaaaac" />
    <path
       style="fill:none;fill-rule:evenodd;stroke:#000000;stroke-width:24.80315018;stroke-linecap:round;stroke-linejoin:miter;stroke-miterlimit:4;stroke-dasharray:none;stroke-opacity:1"
       d="m 1074.7165,605.36206 c 27.7562,139.3717 -64.3303,173.80239 -173.78175,155.61369 -85.77071,-16.0724 -90.8779,-130.42939 -213.41212,-130.13957 -108.28551,0.25612 -207.85286,183.18555 -42.87288,161.50987"
       id="path4199"
       inkscape:connector-curvature="0"
       sodipodi:nodetypes="ccsc" />
    <path
       id="path4203"
       style="fill:#ffffff;fill-opacity:1;fill-rule:evenodd;stroke:#000000;stroke-width:24.80315018;stroke-linecap:butt;stroke-linejoin:miter;stroke-miterlimit:4;stroke-dasharray:none;stroke-opacity:1"
       d="m 1587.0818,344.05607 c 5.1657,32.29343 8.2401,55.66852 11.5901,75.38792 5.9912,4.68943 28.2472,9.48897 32.6025,-2.20338 -4.6821,-25.03583 -7.3007,-45.99892 -13.0597,-75.18422"
       inkscape:connector-curvature="0"
       sodipodi:nodetypes="cccc" />
    <path
       style="fill:none;fill-rule:evenodd;stroke:#000000;stroke-width:24.80315018;stroke-linecap:butt;stroke-linejoin:miter;stroke-miterlimit:4;stroke-dasharray:none;stroke-opacity:1"
       d="m 1637.092,452.20418 c 2.8558,10.10583 4.9703,33.6919 4.9703,33.6919 l -32.0386,6.04758 c 0,0 -3.9707,-27.21569 -4.4038,-34.94868"
       id="path4207"
       inkscape:connector-curvature="0"
       sodipodi:nodetypes="cccc" />
    <path
       style="fill:none;fill-opacity:1;fill-rule:evenodd;stroke:#000000;stroke-width:24.80333519;stroke-linejoin:round;stroke-miterlimit:4;stroke-dasharray:none"
       id="path4256"
       sodipodi:type="arc"
       sodipodi:cx="24.441233"
       sodipodi:cy="-1620.866"
       sodipodi:rx="58.596489"
       sodipodi:ry="61.997887"
       sodipodi:start="0"
       sodipodi:end="6.2668594"
       sodipodi:open="true"
       d="m 83.037722,-1620.866 a 58.596489,61.997887 0 0 1 -58.35733,61.9974 58.596489,61.997887 0 0 1 -58.833696,-61.4913 58.596489,61.997887 0 0 1 57.877074,-62.4993 58.596489,61.997887 0 0 1 59.306143,60.9811"
       transform="matrix(-0.16052771,0.98703133,-0.98613964,-0.16591747,0,0)" />
    <path
       style="fill:#000000;fill-opacity:1;fill-rule:evenodd;stroke:none;stroke-width:24.80315018;stroke-linecap:butt;stroke-linejoin:miter;stroke-miterlimit:4;stroke-dasharray:none;stroke-opacity:1"
       d="m 1205.7143,376.95163 c 0.5671,-4.83067 2.2502,-9.60877 5.3369,-13.3677 3.0866,-3.75893 7.6615,-6.40846 12.5202,-6.6323 2.8912,-0.1332 5.8032,0.58545 8.3505,1.95951 2.5472,1.37406 4.7305,3.39196 6.3861,5.76588 3.3113,4.74784 4.438,10.80335 3.8348,16.56032 -0.5835,5.56896 -2.8012,11.07377 -6.7932,15.00032 -1.996,1.96327 -4.4145,3.50971 -7.0665,4.40714 -2.652,0.89743 -5.5366,1.13593 -8.2831,0.59254 -2.5339,-0.50133 -4.9242,-1.66099 -6.9424,-3.27318 -2.0181,-1.61218 -3.6668,-3.67004 -4.8789,-5.95099 -2.4243,-4.56191 -3.0668,-9.93071 -2.4644,-15.06154 z"
       id="path4291"
       inkscape:path-effect="#path-effect4293"
       inkscape:original-d="m 1205.7143,376.95163 c 0.8795,-8.89391 8.9263,-20.33957 17.8571,-20 10.1836,0.3872 19.5044,14.13759 18.5714,24.28571 -0.9105,9.90422 -12.3119,21.50832 -22.1428,20 -9.2833,-1.4243 -15.2099,-14.93936 -14.2857,-24.28571 z"
       inkscape:connector-curvature="0"
       sodipodi:nodetypes="sssss" />
    <path
       style="display:inline;fill:#000000;fill-opacity:1;fill-rule:evenodd;stroke:none;stroke-width:24.80315018;stroke-linecap:butt;stroke-linejoin:miter;stroke-miterlimit:4;stroke-dasharray:none;stroke-opacity:1"
       d="m 1149.671,389.67222 c 0.5671,-4.83067 2.2502,-9.60877 5.3369,-13.3677 3.0866,-3.75893 7.6615,-6.40846 12.5202,-6.6323 2.8912,-0.1332 5.8032,0.58545 8.3505,1.95951 2.5472,1.37406 4.7305,3.39196 6.3861,5.76588 3.3113,4.74784 4.438,10.80335 3.8348,16.56032 -0.5835,5.56896 -2.8012,11.07377 -6.7932,15.00032 -1.996,1.96327 -4.4145,3.50971 -7.0665,4.40714 -2.652,0.89743 -5.5366,1.13593 -8.2831,0.59254 -2.5339,-0.50133 -4.9242,-1.66099 -6.9424,-3.27318 -2.0181,-1.61218 -3.6668,-3.67004 -4.8789,-5.95099 -2.4243,-4.56191 -3.0668,-9.93071 -2.4644,-15.06154 z"
       id="path4291-6"
       inkscape:path-effect="#path-effect4293-3"
       inkscape:original-d="m 1149.671,389.67222 c 0.8795,-8.89391 8.9263,-20.33957 17.8571,-20 10.1836,0.3872 19.5044,14.13759 18.5714,24.28571 -0.9105,9.90422 -12.3119,21.50832 -22.1428,20 -9.2833,-1.4243 -15.2099,-14.93936 -14.2857,-24.28571 z"
       inkscape:connector-curvature="0"
       sodipodi:nodetypes="sssss" />
    <path
       id="path4660-7"
       style="display:inline;fill:#ffffff;fill-opacity:1;fill-rule:evenodd;stroke:#000000;stroke-width:24.80315018;stroke-linecap:butt;stroke-linejoin:round;stroke-miterlimit:4;stroke-dasharray:none;stroke-opacity:1"
       d="m 659.32556,358.99296 c -41.96172,8.29179 -74.05311,1.12845 -117.76295,8.51458 31.59391,56.32247 47.2852,85.5912 77.6915,140.02795 36.29089,7.12605 74.91326,-9.98555 95.97923,-35.10781 -17.56264,-48.92503 -32.53665,-65.61062 -55.90778,-113.43472 z"
       inkscape:connector-curvature="0"
       sodipodi:nodetypes="ccccc" />
  </g>
  <g
     inkscape:groupmode="layer"
     id="layer5"
     inkscape:label="folder1-foregr"
     transform="translate(-529.16174,-221.90034)" />
  <g
     inkscape:groupmode="layer"
     id="layer3"
     inkscape:label="folder2"
     style="display:none"
     transform="translate(-529.16174,-221.90034)">
    <g
       id="g3723"
       transform="matrix(7.7809264,0,0,7.7809264,54.841496,123.52827)">
      <g
         id="g3653">
        <path
           id="path3655"
           d="M 30.718,26.476 30.725,6.599 C 30.722,5.988 30.226,5.492 29.616,5.492 l -14.019,0 C 15.164,5.482 14.826,4.685 14.826,4.381 l 0,-0.127 c 0,-0.648 -0.528,-1.182 -1.18,-1.182 l -7.46,0 c -0.651,0 -1.178,0.533 -1.178,1.182 l 0,0.127 c 0,0.309 -0.341,1.117 -0.784,1.117 l 0.013,0 C 3.633,5.506 3.143,5.998 3.143,6.603 l 0.005,5.754 -2.385,0 c 0,0 -1.056,-0.057 -0.683,1.199 l 2.516,12.92 c 0,0.65 0.453,1.176 1.104,1.176 l 26.474,0 c 0.65,0 0.544,-1.176 0.544,-1.176 z M 29.359,14.021 29.345,26.996 26.843,13.088 c -0.212,-0.764 -1.075,-0.711 -1.075,-0.711 l -21.258,0 0,-4.414 24.85,0 0,6.058 -10e-4,0 z"
           inkscape:connector-curvature="0" />
        <g
           id="g3657" />
        <g
           id="g3659" />
        <g
           id="g3661" />
        <g
           id="g3663" />
        <g
           id="g3665" />
        <g
           id="g3667" />
        <g
           id="g3669" />
        <g
           id="g3671" />
        <g
           id="g3673" />
        <g
           id="g3675" />
        <g
           id="g3677" />
        <g
           id="g3679" />
        <g
           id="g3681" />
        <g
           id="g3683" />
        <g
           id="g3685" />
      </g>
      <g
         id="g3687" />
      <g
         id="g3689" />
      <g
         id="g3691" />
      <g
         id="g3693" />
      <g
         id="g3695" />
      <g
         id="g3697" />
      <g
         id="g3699" />
      <g
         id="g3701" />
      <g
         id="g3703" />
      <g
         id="g3705" />
      <g
         id="g3707" />
      <g
         id="g3709" />
      <g
         id="g3711" />
      <g
         id="g3713" />
      <g
         id="g3715" />
    </g>
  </g>
</svg>
